<?xml version="1.0" encoding="utf-8"?>
<!-- Generator: Adobe Illustrator 16.2.0, SVG Export Plug-In . SVG Version: 6.00 Build 0)  -->
<!DOCTYPE svg PUBLIC "-//W3C//DTD SVG 1.1//EN" "http://www.w3.org/Graphics/SVG/1.1/DTD/svg11.dtd">
<svg version="1.1" id="Слой_1" xmlns="http://www.w3.org/2000/svg" xmlns:xlink="http://www.w3.org/1999/xlink" x="0px" y="0px"
	 width="100px" height="100px" viewBox="0 0 100 100" enable-background="new 0 0 0 0" xml:space="preserve">
<path fill-rule="evenodd" clip-rule="evenodd" fill="#898889" d="M4.9160156,75.8154297h14.6865234h4.9160156h0.7978516
	c0.6660156,0,1.2617188,0.5976563,1.2617188,1.3300781v2.5234375c0,0.7324219-0.5957031,1.3300781-1.2617188,1.3300781h-0.7978516
	V100h-4.9160156v-6.7099609H4.9160156V100H0V61.3310547c0-1.3300781,1.0644531-2.3925781,2.2587891-2.3925781h0.4648438
	c1.1972656,0,2.1923828,1.0625,2.1923828,2.3251953V75.8154297z M17.3417969,61.5283203h13.9541016V98.140625h4.453125
	l0.265625-30.9619141h28.5029297l0.4648438,30.9619141h4.1210938V61.5283203h15.6142578
	c1.9941406,0.3320313,1.5273438-2.3916016,1.5273438-3.2539063v-0.4648438c0-0.8652344-0.6630859-1.5947266-1.5273438-1.5947266
	H17.3417969c-0.7958984,0-1.4599609,0.7294922-1.4599609,1.5947266v0.4648438
	C15.8818359,59.1367188,15.4150391,61.6630859,17.3417969,61.5283203L17.3417969,61.5283203z M64.0546875,59.8710938v3.6513672
	L36.546875,63.8544922l-0.0673828-3.9833984H64.0546875z M95.0839844,75.8154297H80.3994141h-4.9160156h-0.7998047
	c-0.6621094,0-1.2597656,0.5976563-1.2597656,1.3300781v2.5234375c0,0.7324219,0.5976563,1.3300781,1.2597656,1.3300781h0.7998047
	V100h4.9160156v-6.7099609h14.6845703V100H100V61.3310547c0-1.3300781-1.0644531-2.3925781-2.3261719-2.3925781h-0.3974609
	c-1.2626953,0-2.1923828,1.0625-2.1923828,2.3251953V75.8154297z M80.3994141,90.6328125v-9.6337891h14.6845703v9.6337891
	H80.3994141z M19.6025391,90.6328125v-9.6337891H4.9160156v9.6337891H19.6025391z"/>
</svg>
