<!-- Generated by IcoMoon.io -->
<svg version="1.1" xmlns="http://www.w3.org/2000/svg" width="32" height="32" viewBox="0 0 32 32">
<title>icon-chairs-and-tables</title>
<path fill="#898889" d="M1.573 24.261h6.528c0.213 0 0.404 0.191 0.404 0.426v0.808c0 0.234-0.191 0.426-0.404 0.426h-0.255v6.080h-1.573v-2.147h-4.7v2.147h-1.573v-12.374c0-0.426 0.341-0.766 0.723-0.766h0.149c0.383 0 0.702 0.34 0.702 0.744v4.657zM5.549 19.689h4.465v11.716h1.425l0.085-9.908h9.121l0.149 9.908h1.319v-11.716h4.997c0.638 0.106 0.489-0.765 0.489-1.041v-0.149c0-0.277-0.212-0.51-0.489-0.51h-21.56c-0.255 0-0.467 0.233-0.467 0.51v0.149c0 0.276-0.149 1.084 0.467 1.041v0zM20.497 19.159v1.168l-8.803 0.106-0.022-1.275h8.824zM30.427 24.261h-6.528c-0.212 0-0.403 0.191-0.403 0.426v0.808c0 0.234 0.191 0.426 0.403 0.426h0.256v6.080h1.573v-2.147h4.699v2.147h1.573v-12.374c0-0.426-0.341-0.766-0.744-0.766h-0.127c-0.404 0-0.702 0.34-0.702 0.744v4.657zM25.728 29.003v-3.083h4.699v3.083h-4.699zM6.273 29.003v-3.083h-4.7v3.083h4.7z"></path>
</svg>
