<?xml version="1.0" encoding="utf-8"?>
<!-- Generator: Adobe Illustrator 16.2.0, SVG Export Plug-In . SVG Version: 6.00 Build 0)  -->
<!DOCTYPE svg PUBLIC "-//W3C//DTD SVG 1.1//EN" "http://www.w3.org/Graphics/SVG/1.1/DTD/svg11.dtd">
<svg version="1.1" id="Слой_1" xmlns="http://www.w3.org/2000/svg" xmlns:xlink="http://www.w3.org/1999/xlink" x="0px" y="0px"
	 width="100px" height="100px" viewBox="0 0 100 100" enable-background="new 0 0 100 100" xml:space="preserve">
<path fill-rule="evenodd" clip-rule="evenodd" fill="#898889" d="M57.0927734,54.7460938h13.5800781
	c3.546875,0,6.4902344,3.1240234,6.4902344,6.9101563v13.4013672c0,5.8291016-3.5449219,6.2519531-7.4511719,6.2519531H57.9921875
	c-3.9052734,0-7.3911133-0.4228516-7.3911133-6.2519531V61.65625
	C50.6010742,57.8701172,53.4853516,54.7460938,57.0927734,54.7460938L57.0927734,54.7460938z M28.9672852,54.4453125h13.5810547
	c3.6054688,0,6.4897461,3.0654297,6.4897461,6.8515625v13.4619141c0,3.7841797-2.8842773,6.8496094-6.4897461,6.8496094H28.9672852
	c-3.5473633,0-6.4907227-3.0654297-6.4907227-6.8496094V61.296875
	C22.4765625,57.5107422,25.4199219,54.4453125,28.9672852,54.4453125L28.9672852,54.4453125z M99.8193359,96.390625
	C99.9394531,96.6914063,100,97.0546875,100,97.4140625l0,0C100,98.8544922,98.9189453,100,97.5966797,100h-6.4902344
	c-1.3222656,0-2.4042969-1.1455078-2.4042969-2.5859375l0,0c0-0.359375,0.0605469-0.7226563,0.1796875-1.0234375h-8.5332031l0,0
	c-0.3007813,0-0.6601563,0-0.9628906,0H19.7714844h-2.1035156h-6.5493164
	c0.1796875,0.3007813,0.2397461,0.6640625,0.2397461,1.0234375l0,0c0,1.4404297-1.081543,2.5859375-2.402832,2.5859375H2.4042969
	C1.0820313,100,0,98.8544922,0,97.4140625l0,0c0-0.359375,0.1210938-0.7226563,0.2407227-1.0234375V60.7548828
	c0-3.125,4.387207-5.6494141,9.7963867-5.6494141h9.734375v24.2197266h3.0048828
	c0.3603516,1.1416016,1.3222656,1.984375,2.4038086,2.5830078c1.4423828,0.7216797,3.125,1.0224609,4.6879883,1.0224609h11.7783203
	c1.5625,0,3.3056641-0.3007813,4.7480469-1.0224609c1.0214844-0.5986328,1.9833984-1.4414063,2.402832-2.5830078h2.0444336
	c0.4189453,1.1416016,1.3808594,1.984375,2.4033203,2.5830078c1.4414063,0.7216797,3.1855469,1.0224609,4.7470703,1.0224609
	h11.7197266c1.6220703,0,3.3046875-0.3007813,4.7470703-1.0224609c1.0214844-0.5986328,1.9833984-1.4414063,2.4042969-2.5830078
	h3.4853516V55.1054688h9.7949219c5.3496094,0,9.7363281,2.5244141,9.7363281,5.6494141V96.390625H99.8193359z"/>
</svg>
