<svg version="1.1" xmlns="http://www.w3.org/2000/svg" xmlns:xlink="http://www.w3.org/1999/xlink" width="100" height="44" enable-background="new 0 0 0 0" xml:space="preserve"><rect id="backgroundrect" width="100%" height="100%" x="0" y="0" fill="none" stroke="none"/>

<g class="currentLayer" style=""><title>Layer 1</title><path fill-rule="evenodd" clip-rule="evenodd" fill="#898889" d="M4.916015625,19.6005859375 h14.6865234375 h4.916015625 h0.7978516221046448 c0.666015625,0 1.26171875,0.5976563096046448 1.26171875,1.330078125 v2.5234375 c0,0.732421875 -0.595703125,1.330078125 -1.26171875,1.330078125 h-0.7978516221046448 V43.78515625 h-4.916015625 v-6.7099609375 H4.916015625 V43.78515625 H0 V5.1162109375 c0,-1.330078125 1.064453125,-2.392578125 2.2587890625,-2.392578125 h0.4648438096046448 c1.197265625,0 2.1923828125,1.0625 2.1923828125,2.3251953125 V19.6005859375 zM17.341796875,5.3134765625 h13.9541015625 V41.92578125 h4.453125 l0.265625,-30.9619140625 h28.5029296875 l0.4648438096046448,30.9619140625 h4.12109375 V5.3134765625 h15.6142578125 c1.994140625,0.3320313096046448 1.52734375,-2.3916015625 1.52734375,-3.25390625 v-0.4648438096046448 c0,-0.865234375 -0.6630858778953552,-1.5947265625 -1.52734375,-1.5947265625 H17.341796875 c-0.7958983778953552,0 -1.4599609375,0.7294921875 -1.4599609375,1.5947265625 v0.4648438096046448 C15.8818359375,2.921875 15.4150390625,5.4482421875 17.341796875,5.3134765625 L17.341796875,5.3134765625 zM64.0546875,3.65625 v3.6513671875 L36.546875,7.6396484375 l-0.0673827975988388,-3.9833984375 H64.0546875 zM95.083984375,19.6005859375 H80.3994140625 h-4.916015625 h-0.7998046875 c-0.662109375,0 -1.259765625,0.5976563096046448 -1.259765625,1.330078125 v2.5234375 c0,0.732421875 0.5976563096046448,1.330078125 1.259765625,1.330078125 h0.7998046875 V43.78515625 h4.916015625 v-6.7099609375 h14.6845703125 V43.78515625 H100 V5.1162109375 c0,-1.330078125 -1.064453125,-2.392578125 -2.326171875,-2.392578125 h-0.3974609076976776 c-1.2626953125,0 -2.1923828125,1.0625 -2.1923828125,2.3251953125 V19.6005859375 zM80.3994140625,34.41796875 v-9.6337890625 h14.6845703125 v9.6337890625 H80.3994140625 zM19.6025390625,34.41796875 v-9.6337890625 H4.916015625 v9.6337890625 H19.6025390625 z" id="svg_1" class=""/></g></svg>