<?xml version="1.0" standalone="no"?>
<!DOCTYPE svg PUBLIC "-//W3C//DTD SVG 1.1//EN" "http://www.w3.org/Graphics/SVG/1.1/DTD/svg11.dtd">
<svg xmlns="http://www.w3.org/2000/svg">
<metadata>Copyright (C) 2019 by original authors @ fontello.com</metadata>
<defs>
<font id="fontello" horiz-adv-x="1000" >
<font-face font-family="fontello" font-weight="400" font-stretch="normal" units-per-em="1000" ascent="850" descent="-150" />
<missing-glyph horiz-adv-x="1000" />
<glyph glyph-name="search" unicode="&#xe800;" d="M643 386q0 103-73 176t-177 74-177-74-73-176 73-177 177-73 177 73 73 177z m286-465q0-29-22-50t-50-21q-30 0-50 21l-191 191q-100-69-223-69-80 0-153 31t-125 84-84 125-31 153 31 152 84 126 125 84 153 31 153-31 125-84 84-126 31-152q0-123-69-223l191-191q21-21 21-51z" horiz-adv-x="928.6" />

<glyph glyph-name="login" unicode="&#xe803;" d="M661 350q0-14-11-25l-303-304q-11-10-26-10t-25 10-10 25v161h-250q-15 0-25 11t-11 25v214q0 15 11 25t25 11h250v161q0 14 10 25t25 10 26-10l303-304q11-10 11-25z m196 196v-392q0-67-47-114t-114-47h-178q-7 0-13 5t-5 13q0 2-1 11t0 15 2 13 5 11 12 3h178q37 0 64 27t26 63v392q0 37-26 64t-64 26h-174t-6 0-6 2-5 3-4 5-1 8q0 2-1 11t0 15 2 13 5 11 12 3h178q67 0 114-47t47-114z" horiz-adv-x="857.1" />

<glyph glyph-name="cancel" unicode="&#xe814;" d="M724 112q0-22-15-38l-76-76q-16-15-38-15t-38 15l-164 165-164-165q-16-15-38-15t-38 15l-76 76q-16 16-16 38t16 38l164 164-164 164q-16 16-16 38t16 38l76 76q16 16 38 16t38-16l164-164 164 164q16 16 38 16t38-16l76-76q15-15 15-38t-15-38l-164-164 164-164q15-15 15-38z" horiz-adv-x="785.7" />

<glyph glyph-name="left-open-5" unicode="&#xe819;" d="M242 626q14 16 39 16t41-16q38-36 0-80l-186-196 186-194q38-44 0-80-16-16-40-16t-40 16l-226 236q-16 16-16 38 0 24 16 40 206 214 226 236z" horiz-adv-x="341" />

<glyph glyph-name="vectorpaint1" unicode="&#xe81b;" d="M112 405h334 111 18c16 0 29-14 29-31v-57c0-17-13-30-29-30h-18v-432h-111v152h-334v-152h-112v879c0 30 24 54 51 54h11c27 0 50-24 50-53v-330z m282 324h317v-832h102l6 704h647l11-704h94v832h354c46-7 35 55 35 74v11c0 19-15 36-35 36h-1531c-18 0-33-17-33-36v-11c0-19-11-77 33-74l0 0z m1062 38v-83l-625-8-2 91h627z m705-362h-334-111-19c-15 0-28-14-28-31v-57c0-17 13-30 28-30h19v-432h111v152h334v-152h112v879c0 30-24 54-53 54h-9c-29 0-50-24-50-53v-330z m-334-337v219h334v-219h-334z m-1381 0v219h-334v-219h334z" horiz-adv-x="2273" />

<glyph glyph-name="right-open-2" unicode="&#xe81f;" d="M98 626l226-236q16-16 16-40 0-22-16-38l-226-236q-16-16-40-16t-40 16q-36 36 0 80l186 194-186 196q-36 44 0 80 16 16 41 16t39-16z" horiz-adv-x="340" />

<glyph glyph-name="icon-bedroom" unicode="&#xe900;" d="M87 850v-239h826v239h-826z m449-346v-87h245v87h-245z m-320 0v-87h244v87h-244z m-208-504l982-11-1-139-983 10 2 140z m71 552h839l76-511c-293 0-688 8-980 8 21 168 43 335 65 503v0z" horiz-adv-x="1000" />

<glyph glyph-name="icon-chairs-and-tables" unicode="&#xe901;" d="M49 373h204c7 0 13-6 13-13v-26c0-7-6-13-13-13h-8v-190h-49v67h-147v-67h-49v387c0 13 11 24 23 24h4c12 0 22-11 22-24v-145z m124 143h140v-366h45l2 309h285l5-309h41v366h156c20-3 16 24 16 32v5c0 9-7 16-16 16h-674c-7 0-14-7-14-16v-5c0-8-5-34 14-32v0z m468 16v-36l-275-3-1 39h276z m310-159h-204c-7 0-13-6-13-13v-26c0-7 6-13 13-13h8v-190h49v67h147v-67h49v387c0 13-11 24-23 24h-4c-13 0-22-11-22-24v-145z m-147-148v96h147v-96h-147z m-608 0v96h-147v-96h147z" horiz-adv-x="1000" />

<glyph glyph-name="icon-commode" unicode="&#xe902;" d="M927 750v-755h-42v-111c0-19-14-34-32-34h-20c-15 0-28 13-28 30v115h-601v-111c0-19-15-34-32-34h-20c-16 0-28 13-28 30v115h-43v755h-46c-20 0-35 16-35 37v16c0 21 15 38 35 38h930c20 0 35-17 35-38v-16c0-21-15-37-35-37h-38z m-465-66h99c13 0 24-12 24-26v-29c0-14-11-26-24-26h-99c-13 0-24 12-24 26v29c0 14 11 26 24 26v0z m-7-354h98c14 0 25-12 25-27v-28c0-15-11-27-25-27h-98c-13 0-24 12-24 27v28c0 15 11 27 24 27v0z m315 377h-532v-252h532v252z m0-354h-532v-252h532v252z" horiz-adv-x="1000" />

<glyph glyph-name="icon-hallway" unicode="&#xe903;" d="M171 850h687v-951h-716v951h29z m583-418h5c6 0 10-5 10-11v-94c0-6-4-11-10-11h-5c-5 0-9 5-9 11v94c0 6 4 11 9 11v0z m-554-289h271v173h-271v-173z m271-16h-271v-166h271v166z m-271 205h271v162h-271v-162z m0 178h271v197h-271v-197z m0 239h271v39h-271v-39z m329 0h271v39h-271v-39z m271-42h-271v-746h271v746z m-255-293c0 45 0-241 0 0v0z m168-525h71v-39h-71v39z m-494 0h71v-39h-71v39z" horiz-adv-x="1000" />

<glyph glyph-name="icon-kitchen" unicode="&#xe904;" d="M35 638h930v87h-930v-87z m930-36h-930v-217h930v217z m29-752h-994v912h1000v-912h-6z m-29 278v221h-930v-463h930v242z m-129 423c30 0 53-25 53-56 0-32-23-56-53-56-29 0-54 24-54 56 0 31 25 56 54 56v0z m-664 0c29 0 53-25 53-56 0-32-24-56-53-56-30 0-54 24-54 56 0 31 24 56 54 56v0z m448 0c-29 0-53-25-53-56 0-32 24-56 53-56 30 0 53 24 53 56 0 31-23 56-53 56z m-234 0c-30 0-54-25-54-56 0-32 24-56 54-56 30 0 53 24 53 56 0 31-23 56-53 56z m464-601h-690v330h690v-330z m-670 20h640v280h-640v-280z" horiz-adv-x="1000" />

<glyph glyph-name="icon-lamp" unicode="&#xe905;" d="M502 850v0c-17 0-31-15-31-33v-401c-17-11-28-30-28-52v-126c0-4 0-7 1-11-111-27-195-132-197-258 0-2 0-4 0-5l507 3c-1 126-83 231-194 260 0 3 0 7 0 11v126c0 22-11 41-27 52v401c0 18-14 33-31 33v0z m-2-1000c-64 0-121 36-154 90h308c-33-54-90-90-154-90v0z" horiz-adv-x="1000" />

<glyph glyph-name="icon-living-room" unicode="&#xe906;" d="M889 372h-777l-35 33h846l-34-33z m-331 105h34c11 0 21-11 21-23 0-41-226-41-226 0 0 12 10 23 21 23h32l1 1c7 5 9 13 9 16h100c1-3 2-12 8-17z m-9 33l-1 26h161c10 0 20 4 20 15v279c0 11-10 20-20 20h-418c-10 0-20-9-20-20v-279c0-11 10-15 20-15h161l-1-26h98z m150 78v0h-398v230h398v-230z m190-738v504h-777v-504h51v36c226 0 447 0 674 0v-36h52z m-680 440h583c9 0 18-4 24-11s11-16 11-27v-76c0-10-4-19-11-26v0 0c-6-7-15-11-24-11h-583c-10 0-19 4-25 11-7 7-11 16-11 26v76c0 11 4 20 11 27v0c6 7 15 11 25 11v0z m341-75v0c0 5-2 11-5 15-3 5-8 8-13 8h-63c-6 0-11-3-14-8-3-4-5-10-5-15 0-7 2-13 5-17 3-4 8-8 14-8h63c5 0 10 4 13 8 3 4 5 10 5 17z m-81-158v-120h-272v120h272z m-119-60v0c0 2 0 4-1 5-1 2-3 3-5 3h-22c-1 0-3-1-4-3-1-1-2-3-2-5 0-3 1-4 2-6 1-1 3-2 4-2h22c2 0 4 1 5 2 1 2 1 3 1 6z m462 60v-120h-272v120h272z m-119-60c0-3-1-4-1-6-2-1-3-2-5-2v0h-22c-2 0-3 1-5 2-1 2-1 3-1 6 0 2 0 4 1 5 2 2 3 3 5 3v0h22c2 0 3-1 5-3 0-1 1-3 1-5v0z" horiz-adv-x="1000" />

<glyph glyph-name="icon-office" unicode="&#xe907;" d="M429 850h139c70 0 127-61 127-134v-251c0-73-57-134-127-134h-34v-45h143c7 0 14-7 18-17v0c2-6 4-13 5-21 98 2 76 100 74 191h-4c-7 0-13 6-13 14v16c0 8 6 14 13 14h55c7 0 13-6 13-14v-16c0-8-6-14-13-14h-5c1-119 28-245-120-240-2-6-3-12-5-17-4-10-11-18-18-18h-159v-195c0-1 0-3 0-4 42-3 82-16 121-42 2-9 0-14-9-16-40 27-80 38-123 41v-54l0-4-5-4-3-1-4 1-5 4 0 4v54c-41-2-74-9-117-37-8 2-10 8-8 16 42 27 74 35 114 39 0 0 0 2 0 3v195h-159c-7 0-14 8-18 18v0c-2 5-3 11-5 17-146-3-118 121-117 240h-5c-7 0-13 6-13 14v16c0 8 6 14 13 14h55c7 0 13-6 13-14v-16c0-8-6-14-13-14h-4c0-8-1-15-1-23-4-87-14-152 60-166 3-1 8-1 12-1 1 7 3 14 5 20v0c1 0 1 1 1 3 5 9 11 14 17 14h144v45h-35c-69 0-127 61-127 134v251c0 73 58 134 127 134v0z m187-946v0c8 0 14-2 14-3v-25c0-3-6-4-14-4v0c-8 0-14 1-14 4v25c0 1 6 3 14 3v0z m34 0v0c8 0 14-2 14-3v-25c0-3-6-4-14-4v0c-8 0-14 1-14 4v25c0 1 6 3 14 3v0z m-301 3v0c8 0 14-2 14-5v-24c0-2-6-4-14-4v0c-8 0-14 2-14 4v24c0 3 6 5 14 5v0z m33 0v0c8 0 14-2 14-5v-24c0-2-6-4-14-4v0c-7 0-13 2-13 4v24c0 3 6 5 13 5v0z m100-24v0c7 0 14-2 14-5v-24c0-2-7-4-14-4v0c-8 0-14 2-14 4v24c0 3 6 5 14 5v0z m34 0v0c7 0 14-2 14-5v-24c0-2-7-4-14-4v0c-8 0-14 2-14 4v24c0 3 6 5 14 5v0z" horiz-adv-x="1000" />

<glyph glyph-name="uniE908" unicode="&#xe908;" d="M704 475h-629c-41 0-75 34-75 75v225c0 41 34 75 75 75h629c42 0 75-34 75-75v-225c0-41-33-75-75-75z m-62-552h-504c-76 0-138 62-138 138v247c0 76 62 138 138 138h504c76 0 137-62 137-138v-248c0-75-61-137-137-137z m-642 174h79v-233h-79v233z m700 0h79v-233h-79v233z" horiz-adv-x="781.3" />

<glyph glyph-name="icon-sofa" unicode="&#xe909;" d="M1142 755h272c70 0 129-62 129-138v-268c0-117-71-125-149-125h-234c-78 0-148 8-148 125v268c0 76 58 138 130 138v0z m-563 6h272c72 0 130-61 130-137v-269c0-76-58-137-130-137h-272c-71 0-129 61-129 137v269c0 76 58 137 129 137v0z m1417-839c3-6 4-13 4-20v0c0-29-22-52-48-52h-130c-26 0-48 23-48 52v0c0 7 1 14 4 20h-171c-6 0-13 0-19 0h-1366c4-6 5-13 5-20v0c0-29-21-52-48-52h-131c-26 0-48 23-48 52v0c0 7 2 14 5 20v713c0 62 88 113 196 113h194v-484h61c7-23 26-40 48-52 28-15 62-21 93-21h236c31 0 66 6 95 21 20 12 40 29 48 52h41c8-23 27-40 48-52 29-15 64-21 95-21h234c33 0 66 6 95 21 21 12 40 29 48 52h70v484h196c107 0 195-51 195-113v-713h-2z" horiz-adv-x="2000" />

<glyph glyph-name="icon-wardrobe" unicode="&#xe90a;" d="M171 850h687v-951h-716v951h29z m272-423v0c7 0 13-6 13-13v-79c0-6-6-12-13-12v0c-7 0-12 6-12 12v79c0 7 5 13 12 13v0z m114 0v0c6 0 12-6 12-13v-79c0-6-6-12-12-12v0c-7 0-12 6-12 12v79c0 7 5 13 12 13v0z m156-538h71v-39h-71v39z m-494 0h72v-39h-72v39z m310 899v-827h270v827h-270z m-58-827v827h-271v-827h271z" horiz-adv-x="1000" />

<glyph glyph-name="menu" unicode="&#xf0c9;" d="M857 100v-71q0-15-10-25t-26-11h-785q-15 0-25 11t-11 25v71q0 15 11 25t25 11h785q15 0 26-11t10-25z m0 286v-72q0-14-10-25t-26-10h-785q-15 0-25 10t-11 25v72q0 14 11 25t25 10h785q15 0 26-10t10-25z m0 285v-71q0-14-10-25t-26-11h-785q-15 0-25 11t-11 25v71q0 15 11 26t25 10h785q15 0 26-10t10-26z" horiz-adv-x="857.1" />

<glyph glyph-name="angle-double-left" unicode="&#xf100;" d="M350 82q0-7-6-13l-28-28q-5-5-12-5t-13 5l-260 261q-6 5-6 12t6 13l260 260q5 6 13 6t12-6l28-28q6-5 6-13t-6-12l-219-220 219-219q6-6 6-13z m214 0q0-7-5-13l-28-28q-6-5-13-5t-13 5l-260 261q-6 5-6 12t6 13l260 260q6 6 13 6t13-6l28-28q5-5 5-13t-5-12l-220-220 220-219q5-6 5-13z" horiz-adv-x="571.4" />

<glyph glyph-name="angle-double-down" unicode="&#xf103;" d="M600 368q0-7-6-13l-260-260q-5-6-13-6t-12 6l-260 260q-6 6-6 13t6 13l28 28q5 5 12 5t13-5l219-220 220 220q5 5 13 5t12-5l28-28q6-6 6-13z m0 214q0-7-6-13l-260-260q-5-5-13-5t-12 5l-260 260q-6 6-6 13t6 13l28 28q5 6 12 6t13-6l219-219 220 219q5 6 13 6t12-6l28-28q6-6 6-13z" horiz-adv-x="642.9" />

<glyph glyph-name="angle-right" unicode="&#xf105;" d="M332 314q0-7-5-12l-261-261q-5-5-12-5t-13 5l-28 28q-6 6-6 13t6 13l219 219-219 220q-6 5-6 12t6 13l28 28q5 6 13 6t12-6l261-260q5-5 5-13z" horiz-adv-x="357.1" />

<glyph glyph-name="angle-down" unicode="&#xf107;" d="M600 439q0-7-6-12l-260-261q-5-5-13-5t-12 5l-260 261q-6 5-6 12t6 13l28 28q5 6 12 6t13-6l219-219 220 219q5 6 13 6t12-6l28-28q6-5 6-13z" horiz-adv-x="642.9" />

<glyph glyph-name="user-plus" unicode="&#xf234;" d="M393 350q-89 0-152 63t-62 151 62 152 152 63 151-63 63-152-63-151-151-63z m536-71h196q7 0 13-6t5-12v-107q0-8-5-13t-13-5h-196v-197q0-7-6-12t-12-6h-107q-8 0-13 6t-5 12v197h-197q-7 0-12 5t-6 13v107q0 7 6 12t12 6h197v196q0 7 5 13t13 5h107q7 0 12-5t6-13v-196z m-411-125q0-29 21-51t50-21h143v-133q-38-28-95-28h-488q-67 0-108 39t-41 106q0 30 2 58t8 61 15 60 24 55 34 45 48 30 62 11q11 0 22-10 44-34 86-51t92-17 92 17 86 51q11 10 22 10 73 0 121-54h-125q-29 0-50-21t-21-50v-107z" horiz-adv-x="1142.9" />

<glyph glyph-name="shopping-basket" unicode="&#xf291;" d="M1071 421q30 0 51-20t21-51-21-50-51-21h-8l-64-370q-5-26-25-42t-45-17h-715q-25 0-45 17t-25 42l-64 370h-9q-29 0-50 21t-21 50 21 51 50 20h1000z m-800-446q14 1 24 13t9 26l-18 232q-1 14-13 24t-26 9-24-13-9-26l18-232q1-14 12-24t24-9h3z m229 36v232q0 14-11 25t-25 11-25-11-10-25v-232q0-15 10-25t25-11 25 11 11 25z m214 0v232q0 14-10 25t-25 11-25-11-11-25v-232q0-15 11-25t25-11 25 11 10 25z m197-3l18 232q1 15-9 26t-24 13-26-9-13-24l-18-232q-1-15 9-26t24-13h3q14 0 24 9t12 24z m-645 679l-52-230h-74l56 246q11 49 50 80t89 31h94q0 15 10 25t25 11h215q14 0 25-11t10-25h94q50 0 89-31t49-80l57-246h-74l-52 230q-6 25-25 40t-44 16h-94q0-15-10-25t-25-11h-215q-14 0-25 11t-10 25h-94q-25 0-44-16t-25-40z" horiz-adv-x="1142.9" />
</font>
</defs>
</svg>
